HIERARCHY
ROOT hip
{
  OFFSET 0 0 0
  CHANNELS 6 Xposition Yposition Zposition Zrotation Yrotation Xrotation
  JOINT abdomen
  {
    OFFSET 0 20.6881 -0.73152
    CHANNELS 3 Zrotation Xrotation Yrotation
    JOINT chest
    {
      OFFSET 0 11.7043 -0.48768
      CHANNELS 3 Zrotation Xrotation Yrotation
      JOINT neck
      {
        OFFSET 0 22.1894 -2.19456
        CHANNELS 3 Zrotation Xrotation Yrotation
        JOINT head
        {
          OFFSET -0.24384 7.07133 1.2192
          CHANNELS 3 Zrotation Xrotation Yrotation
          JOINT leftEye
          {
            OFFSET 4.14528 8.04674 8.04672
            CHANNELS 3 Zrotation Xrotation Yrotation
            End Site
            {
              OFFSET 1 0 0
            }
          }
          JOINT rightEye
          {
            OFFSET -3.6576 8.04674 8.04672
            CHANNELS 3 Zrotation Xrotation Yrotation
            End Site
            {
              OFFSET 1 0 0
            }
          }
        }
      }
      JOINT rCollar
      {
        OFFSET -2.68224 19.2634 -4.8768
        CHANNELS 3 Zrotation Xrotation Yrotation
        JOINT rShldr
        {
          OFFSET -8.77824 -1.95073 1.46304
          CHANNELS 3 Zrotation Xrotation Yrotation
          JOINT rForeArm
          {
            OFFSET -28.1742 -1.7115 0.48768
            CHANNELS 3 Zrotation Xrotation Yrotation
            JOINT rHand
            {
              OFFSET -22.5879 0.773209 7.07136
              CHANNELS 3 Zrotation Xrotation Yrotation
              JOINT rThumb1
              {
                OFFSET -1.2192 -0.487915 3.41376
                CHANNELS 3 Zrotation Xrotation Yrotation
                JOINT rThumb2
                {
                  OFFSET -3.37035 -0.52449 3.41376
                  CHANNELS 3 Zrotation Xrotation Yrotation
                  End Site
                  {
                    OFFSET -1.78271 -1.18214 1.43049
                  }
                }
              }
              JOINT rIndex1
              {
                OFFSET -7.75947 0.938293 5.60832
                CHANNELS 3 Zrotation Xrotation Yrotation
                JOINT rIndex2
                {
                  OFFSET -2.54057 -0.884171 1.56538
                  CHANNELS 3 Zrotation Xrotation Yrotation
                  End Site
                  {
                    OFFSET -1.62519 -0.234802 1.16502
                  }
                }
              }
              JOINT rMid1
              {
                OFFSET -8.24714 1.18213 3.41376
                CHANNELS 3 Zrotation Xrotation Yrotation
                JOINT rMid2
                {
                  OFFSET -3.10165 -0.590103 1.0647
                  CHANNELS 3 Zrotation Xrotation Yrotation
                  End Site
                  {
                    OFFSET -2.48547 -0.328903 0.83742
                  }
                }
              }
              JOINT rRing1
              {
                OFFSET -8.82822 0.546677 1.51678
                CHANNELS 3 Zrotation Xrotation Yrotation
                JOINT rRing2
                {
                  OFFSET -2.60934 -0.819778 -0.0198488
                  CHANNELS 3 Zrotation Xrotation Yrotation
                  End Site
                  {
                    OFFSET -2.33842 -0.294052 0.168128
                  }
                }
              }
              JOINT rPinky1
              {
                OFFSET -8.27202 -0.0477905 -0.4584
                CHANNELS 3 Zrotation Xrotation Yrotation
                JOINT rPinky2
                {
                  OFFSET -1.82734 -0.647385 -0.700984
                  CHANNELS 3 Zrotation Xrotation Yrotation
                  End Site
                  {
                    OFFSET -1.69225 -0.51767 -0.607171
                  }
                }
              }
            }
          }
        }
      }
      JOINT lCollar
      {
        OFFSET 2.68224 19.2634 -4.8768
        CHANNELS 3 Zrotation Xrotation Yrotation
        JOINT lShldr
        {
          OFFSET 8.77824 -1.95073 1.46304
          CHANNELS 3 Zrotation Xrotation Yrotation
          JOINT lForeArm
          {
            OFFSET 28.1742 -1.7115 0.48768
            CHANNELS 3 Zrotation Xrotation Yrotation
            JOINT lHand
            {
              OFFSET 22.5879 0.773209 7.07136
              CHANNELS 3 Zrotation Xrotation Yrotation
              JOINT lThumb1
              {
                OFFSET 1.2192 -0.487915 3.41376
                CHANNELS 3 Zrotation Xrotation Yrotation
                JOINT lThumb2
                {
                  OFFSET 3.37035 -0.52449 3.41376
                  CHANNELS 3 Zrotation Xrotation Yrotation
                  End Site
                  {
                    OFFSET 1.78271 -1.18214 1.43049
                  }
                }
              }
              JOINT lIndex1
              {
                OFFSET 7.75947 0.938293 5.60832
                CHANNELS 3 Zrotation Xrotation Yrotation
                JOINT lIndex2
                {
                  OFFSET 2.54057 -0.884171 1.56538
                  CHANNELS 3 Zrotation Xrotation Yrotation
                  End Site
                  {
                    OFFSET 1.62519 -0.234802 1.16502
                  }
                }
              }
              JOINT lMid1
              {
                OFFSET 8.24714 1.18213 3.41376
                CHANNELS 3 Zrotation Xrotation Yrotation
                JOINT lMid2
                {
                  OFFSET 3.10165 -0.590103 1.0647
                  CHANNELS 3 Zrotation Xrotation Yrotation
                  End Site
                  {
                    OFFSET 2.48547 -0.328903 0.83742
                  }
                }
              }
              JOINT lRing1
              {
                OFFSET 8.82822 0.546677 1.51678
                CHANNELS 3 Zrotation Xrotation Yrotation
                JOINT lRing2
                {
                  OFFSET 2.60934 -0.819778 -0.0198488
                  CHANNELS 3 Zrotation Xrotation Yrotation
                  End Site
                  {
                    OFFSET 2.33842 -0.294052 0.168128
                  }
                }
              }
              JOINT lPinky1
              {
                OFFSET 8.27202 -0.0477905 -0.4584
                CHANNELS 3 Zrotation Xrotation Yrotation
                JOINT lPinky2
                {
                  OFFSET 1.82734 -0.647385 -0.700984
                  CHANNELS 3 Zrotation Xrotation Yrotation
                  End Site
                  {
                    OFFSET 1.69225 -0.51767 -0.607171
                  }
                }
              }
            }
          }
        }
      }
    }
  }
  JOINT rButtock
  {
    OFFSET -8.77824 4.35084 1.2192
    CHANNELS 3 Zrotation Xrotation Yrotation
    JOINT rThigh
    {
      OFFSET 0 -1.70687 -2.19456
      CHANNELS 3 Zrotation Xrotation Yrotation
      JOINT rShin
      {
        OFFSET 0 -36.8199 0.73152
        CHANNELS 3 Zrotation Xrotation Yrotation
        JOINT rFoot
        {
          OFFSET 0.73152 -45.1104 -5.12064
          CHANNELS 3 Zrotation Xrotation Yrotation
          End Site
          {
            OFFSET -1.1221 -3.69964 12.103
          }
        }
      }
    }
  }
  JOINT lButtock
  {
    OFFSET 8.77824 4.35084 1.2192
    CHANNELS 3 Zrotation Xrotation Yrotation
    JOINT lThigh
    {
      OFFSET 0 -1.70687 -2.19456
      CHANNELS 3 Zrotation Xrotation Yrotation
      JOINT lShin
      {
        OFFSET 0 -36.8199 0.73152
        CHANNELS 3 Zrotation Xrotation Yrotation
        JOINT lFoot
        {
          OFFSET -0.73152 -45.1104 -5.12064
          CHANNELS 3 Zrotation Xrotation Yrotation
          End Site
          {
            OFFSET 1.1221 -3.69964 12.103
          }
        }
      }
    }
  }
}
MOTION
Frames:	4
Frame Time:	0.00833333
64.3163 85.415 55.6023 0.0 0.0 0.0 1.67537 -0.00249556 0.0455945 0.461929 0.002387 0.0799905 -7.00647e-14 7.95139e-16 -3.72721e-16 -2.09926e-13 9.54166e-15 -1.22377e-15 -0.0 0.0 0.0 -0.0 0.0 0.0 -3.49881e-14 7.70679e-17 0.0 -7.32987e-13 1.09332e-15 -6.36111e-15 -1.26419e-11 3.83058e-12 4.13472e-14 -1.44545e-10 -3.49396e-12 -1.09729e-12 -3.40983e-10 7.39791e-13 -2.22957e-12 -5.88883e-10 1.28176e-12 -3.84529e-12 -3.40981e-10 7.38684e-13 -2.24229e-12 7.73091 5.47488 0.417314 -3.40984e-10 7.39081e-13 -2.22639e-12 2.90554 0.965183 0.102902 -3.4098e-10 7.39578e-13 -2.23116e-12 10.2786 0.731801 0.0259123 -3.40994e-10 7.4266e-13 -2.22003e-12 2.22167 -0.733487 -0.20892 -3.51852e-14 7.66796e-17 -3.47873e-16 -7.34474e-13 1.57785e-15 -7.35503e-15 -1.26254e-11 -3.73059e-12 3.18055e-14 -1.44587e-10 4.08465e-12 -1.06549e-12 -3.41029e-10 7.69747e-13 -2.23911e-12 -5.88926e-10 1.33265e-12 -3.85404e-12 -3.41032e-10 7.68899e-13 -2.22957e-12 -7.73091 5.47488 -0.417314 -3.41028e-10 7.68998e-13 -2.24229e-12 -2.90554 0.965183 -0.102902 -3.41035e-10 7.69595e-13 -2.23832e-12 -10.2786 0.731801 -0.0259123 -3.41019e-10 7.7367e-13 -2.24865e-12 -2.22167 -0.733487 0.20892 -2.03217e-16 0.0 -3.88251e-19 1.77121 -6.79373 -0.168017 0.0030612 6.74207 0.0830234 -0.520391 0.0465663 0.06004 2.03217e-16 0.0 3.88251e-19 0.77784 -1.92427 0.00415838 0.00908674 -2.07858 0.0749433 0.493301 3.99766 -0.137531
60.6434 82.8068 48.2456 -166.809 -76.9978 174.714 -0.544738 -0.503954 1.85269 2.77454 0.0860967 0.581468 0.108001 1.22342 0.382762 1.41639 -9.64673 1.05441 -0.0 0.0 0.0 -0.0 0.0 0.0 -5.12873e-14 5.25781e-13 4.3033e-14 20.0845 5.51168 -2.5032 -6.76481 -3.83514 9.60923 0.00249651 -1.11093 -0.156026 -1.16903e-10 4.60188e-12 -4.03515e-12 -2.0206e-10 8.8861e-12 -7.3157e-12 -1.169e-10 4.60223e-12 -4.04716e-12 7.73091 5.47488 0.417314 -1.16905e-10 4.59935e-12 -4.02812e-12 2.90554 0.965183 0.102902 -1.16897e-10 4.60286e-12 -4.03638e-12 10.2786 0.731801 0.0259123 -1.16911e-10 4.60527e-12 -4.02474e-12 2.22167 -0.733487 -0.20892 -5.14551e-14 5.25781e-13 4.26976e-14 -20.9975 11.5813 1.59487 6.7561 -3.82801 -9.59944 -0.0656202 -5.68765 0.785193 -1.26369e-10 -9.32534e-13 -1.22089e-12 -2.18451e-10 -1.03624e-12 -2.27589e-13 -1.26373e-10 -9.32499e-13 -1.21229e-12 -7.73091 5.47488 -0.417314 -1.26369e-10 -9.33059e-13 -1.22327e-12 -2.90554 0.965183 -0.102902 -1.26375e-10 -9.32691e-13 -1.21987e-12 -10.2786 0.731801 -0.0259123 -1.2636e-10 -9.30169e-13 -1.22884e-12 -2.22167 -0.733487 0.20892 -2.03217e-16 0.0 -3.88251e-19 -0.273016 -13.7636 -4.20133 -0.0566952 22.0183 0.282001 -0.605579 4.09046 -2.21008 2.03217e-16 0.0 3.88251e-19 0.474561 -9.31481 -2.99045 -0.0448433 9.89148 -0.132842 1.20853 -1.04102 5.91804
60.6663 82.8062 48.2125 -165.863 -77.0468 173.856 -2.86586 -1.03182 3.76037 5.22358 0.174464 1.11074 0.206862 2.53449 0.794828 3.36156 -19.9469 2.29712 -0.0 0.0 0.0 -0.0 0.0 0.0 -7.03096e-14 1.13491e-12 8.91611e-14 41.8482 11.2867 -5.22982 -12.5206 -7.51487 19.8828 -0.001445 -2.27658 -0.319937 1.33013e-10 -2.96444e-12 -3.7616e-12 2.2934e-10 -3.17359e-12 -7.22165e-12 1.33015e-10 -2.96244e-12 -3.77293e-12 7.73091 5.47488 0.417314 1.33008e-10 -2.96891e-12 -3.75027e-12 2.90554 0.965183 0.102902 1.3302e-10 -2.96206e-12 -3.7625e-12 10.2786 0.731801 0.0259123 1.33007e-10 -2.96036e-12 -3.75027e-12 2.22167 -0.733487 -0.20892 -7.0447e-14 1.13491e-12 8.88381e-14 -43.9563 23.7989 3.51203 12.5237 -7.51855 -19.8845 0.037736 -11.6911 1.64061 1.11002e-10 -7.42836e-12 1.92543e-12 1.91248e-10 -1.16021e-11 7.35429e-12 1.10996e-10 -7.42739e-12 1.93298e-12 -7.73091 5.47488 -0.417314 1.11001e-10 -7.42868e-12 1.92384e-12 -2.90554 0.965183 -0.102902 1.10994e-10 -7.42856e-12 1.92667e-12 -10.2786 0.731801 -0.0259123 1.11009e-10 -7.42774e-12 1.91907e-12 -2.22167 -0.733487 0.20892 -2.03217e-16 0.0 -3.88251e-19 -3.56825 -20.9785 -8.79853 -0.266918 38.1679 0.573254 -0.344672 8.33837 -4.65114 2.03217e-16 0.0 3.88251e-19 -0.721669 -17.0544 -6.35127 -0.00118044 22.5442 -0.376948 3.11867 -6.23092 12.3908
60.6722 82.8072 48.1977 -165.347 -77.1136 173.363 -4.89019 -1.5008 5.46855 7.39538 0.253432 1.58444 0.274882 3.66962 1.15038 5.44238 -28.8981 3.56258 -0.0 0.0 0.0 -0.0 0.0 0.0 -8.38856e-14 1.57719e-12 1.29099e-13 61.7459 16.4061 -7.79407 -16.5658 -10.2124 29.27 -0.0106879 -3.33269 -0.468782 3.31259e-10 1.23261e-11 -7.64633e-12 5.71587e-10 2.40948e-11 -1.42565e-11 3.3126e-10 1.23293e-11 -7.65689e-12 7.73091 5.47488 0.417314 3.31252e-10 1.23199e-11 -7.63159e-12 2.90554 0.965183 0.102902 3.31268e-10 1.23294e-11 -7.64684e-12 10.2786 0.731801 0.0259123 3.31255e-10 1.23305e-11 -7.63417e-12 2.22167 -0.733487 -0.20892 -8.39951e-14 1.57719e-12 1.28788e-13 -65.2771 34.6241 5.699 16.5501 -10.1961 -29.2387 0.288951 -17.0498 2.4518 3.02952e-10 -4.3371e-12 8.15563e-13 5.22498e-10 -5.77403e-12 7.02531e-12 3.02944e-10 -4.33529e-12 8.22273e-13 -7.73091 5.47488 -0.417314 3.0295e-10 -4.33717e-12 8.14768e-13 -2.90554 0.965183 -0.102902 3.02944e-10 -4.33726e-12 8.1701e-13 -10.2786 0.731801 -0.0259123 3.02958e-10 -4.33785e-12 8.10793e-13 -2.22167 -0.733487 0.20892 -2.03217e-16 0.0 -3.88251e-19 -7.60891 -27.162 -13.4097 -0.687765 52.567 1.01906 0.201374 12.102 -6.8872 2.03217e-16 0.0 3.88251e-19 -2.62629 -23.8273 -9.69451 0.147796 33.83 -0.65294 5.81985 -10.5821 18.3485
